<svg xmlns="http://www.w3.org/2000/svg" viewBox="0 0 256 256" fill="none"><defs><linearGradient id="bg" x1="0" y1="0" x2="1" y2="1"><stop stop-color="#7C3AED"/><stop offset="1" stop-color="#F472B6"/></linearGradient></defs><rect width="256" height="256" rx="48" fill="url(#bg)"/><rect x="18" y="18" width="220" height="220" rx="40" stroke="rgba(255,255,255,.32)"/><circle cx="128" cy="95" r="54" fill="#F8FAFC"/><circle cx="109" cy="90" r="7" fill="#0F172A"/><circle cx="147" cy="90" r="7" fill="#0F172A"/><path d="M108 118c11 12 29 12 40 0" stroke="#0F172A" stroke-width="6" stroke-linecap="round"/><path d="M84 166c0-18 20-32 44-32s44 14 44 32v46H84z" fill="#0F172A" fill-opacity=".82"/><path d="M74 57c7-22 32-37 60-37 32 0 58 18 64 42-17-14-38-20-60-20-23 0-45 6-64 15z" fill="#DDD6FE" fill-opacity=".75"/></svg>