<svg xmlns="http://www.w3.org/2000/svg" viewBox="0 0 256 256" fill="none"><defs><linearGradient id="bg" x1="0" y1="0" x2="1" y2="1"><stop stop-color="#10B981"/><stop offset="1" stop-color="#38BDF8"/></linearGradient></defs><rect width="256" height="256" rx="48" fill="url(#bg)"/><rect x="18" y="18" width="220" height="220" rx="40" stroke="rgba(255,255,255,.32)"/><circle cx="128" cy="94" r="54" fill="#F8FAFC"/><circle cx="108" cy="90" r="7" fill="#0F172A"/><circle cx="147" cy="90" r="7" fill="#0F172A"/><path d="M106 119c12 10 32 10 44 0" stroke="#0F172A" stroke-width="6" stroke-linecap="round"/><path d="M82 165c0-20 21-34 46-34s46 14 46 34v47H82z" fill="#052E2B" fill-opacity=".88"/><path d="M73 72c5-31 30-52 58-52 38 0 66 27 66 62v10c-9-22-26-39-69-39-21 0-38 7-55 19V72z" fill="#D1FAE5" fill-opacity=".7"/></svg>