<svg xmlns="http://www.w3.org/2000/svg" viewBox="0 0 32 32" shape-rendering="crispEdges">
  <rect width="32" height="32" fill="#00000000"/>
  <rect x="10" y="5" width="10" height="2" fill="#111827"/>
  <rect x="8" y="7" width="14" height="2" fill="#111827"/>
  <rect x="8" y="9" width="4" height="2" fill="#111827"/>
  <rect x="12" y="9" width="8" height="2" fill="#fb923c"/>
  <rect x="20" y="9" width="2" height="2" fill="#111827"/>
  <rect x="8" y="11" width="2" height="6" fill="#111827"/>
  <rect x="10" y="11" width="10" height="6" fill="#fb923c"/>
  <rect x="20" y="11" width="2" height="6" fill="#111827"/>
  <rect x="12" y="13" width="2" height="2" fill="#111827"/>
  <rect x="18" y="13" width="2" height="2" fill="#111827"/>
  <rect x="14" y="15" width="4" height="2" fill="#111827"/>
  <rect x="10" y="17" width="10" height="2" fill="#ffffff"/>
  <rect x="8" y="19" width="14" height="2" fill="#2563eb"/>
  <rect x="8" y="21" width="5" height="6" fill="#ffffff"/>
  <rect x="13" y="21" width="4" height="6" fill="#dbeafe"/>
  <rect x="17" y="21" width="5" height="6" fill="#ffffff"/>
  <rect x="8" y="27" width="4" height="2" fill="#111827"/>
  <rect x="18" y="27" width="4" height="2" fill="#111827"/>
  <rect x="5" y="18" width="3" height="2" fill="#94a3b8"/>
  <rect x="24" y="18" width="3" height="2" fill="#94a3b8"/>
</svg>