<svg xmlns="http://www.w3.org/2000/svg" viewBox="0 0 256 256" fill="none"><defs><linearGradient id="bg" x1="0" y1="0" x2="1" y2="1"><stop stop-color="#F59E0B"/><stop offset="1" stop-color="#EF4444"/></linearGradient></defs><rect width="256" height="256" rx="48" fill="url(#bg)"/><rect x="18" y="18" width="220" height="220" rx="40" stroke="rgba(255,255,255,.32)"/><circle cx="128" cy="96" r="54" fill="#F8FAFC"/><circle cx="108" cy="91" r="7" fill="#0F172A"/><circle cx="148" cy="91" r="7" fill="#0F172A"/><path d="M104 120c14 11 34 11 48 0" stroke="#0F172A" stroke-width="6" stroke-linecap="round"/><path d="M82 168c0-20 21-36 46-36s46 16 46 36v44H82z" fill="#111827" fill-opacity=".82"/><path d="M76 70c10-25 31-39 56-39 28 0 50 13 62 35-19-8-39-12-60-12-21 0-40 5-58 16z" fill="#FEF3C7" fill-opacity=".72"/></svg>