<svg xmlns="http://www.w3.org/2000/svg" viewBox="0 0 32 32" shape-rendering="crispEdges">
  <rect width="32" height="32" fill="#00000000"/>
  <rect x="10" y="5" width="10" height="2" fill="#111827"/>
  <rect x="8" y="7" width="14" height="2" fill="#111827"/>
  <rect x="8" y="9" width="4" height="2" fill="#111827"/>
  <rect x="12" y="9" width="8" height="2" fill="#f59e0b"/>
  <rect x="20" y="9" width="2" height="2" fill="#111827"/>
  <rect x="8" y="11" width="2" height="6" fill="#111827"/>
  <rect x="10" y="11" width="10" height="6" fill="#f59e0b"/>
  <rect x="20" y="11" width="2" height="6" fill="#111827"/>
  <rect x="12" y="13" width="2" height="2" fill="#111827"/>
  <rect x="18" y="13" width="2" height="2" fill="#111827"/>
  <rect x="14" y="15" width="4" height="2" fill="#111827"/>
  <rect x="10" y="17" width="10" height="2" fill="#60a5fa"/>
  <rect x="8" y="19" width="14" height="2" fill="#1d4ed8"/>
  <rect x="8" y="21" width="5" height="6" fill="#1f2937"/>
  <rect x="13" y="21" width="4" height="6" fill="#f8fafc"/>
  <rect x="17" y="21" width="5" height="6" fill="#1f2937"/>
  <rect x="8" y="27" width="4" height="2" fill="#111827"/>
  <rect x="18" y="27" width="4" height="2" fill="#111827"/>
</svg>